<svg width="25" height="24" viewBox="0 0 25 24" fill="none" xmlns="http://www.w3.org/2000/svg">
<g clip-path="url(#clip0_1_11580)">
<path d="M12.6666 20C14.7884 20 16.8232 19.1571 18.3235 17.6569C19.8238 16.1566 20.6666 14.1217 20.6666 12C20.6666 9.87827 19.8238 7.84344 18.3235 6.34315C16.8232 4.84285 14.7884 4 12.6666 4C10.5449 4 8.51006 4.84285 7.00977 6.34315C5.50948 7.84344 4.66663 9.87827 4.66663 12C4.66663 14.1217 5.50948 16.1566 7.00977 17.6569C8.51006 19.1571 10.5449 20 12.6666 20ZM12.6666 22C7.14363 22 2.66663 17.523 2.66663 12C2.66663 6.477 7.14363 2 12.6666 2C18.1896 2 22.6666 6.477 22.6666 12C22.6666 17.523 18.1896 22 12.6666 22ZM12.6666 16C13.7275 16 14.7449 15.5786 15.4951 14.8284C16.2452 14.0783 16.6666 13.0609 16.6666 12C16.6666 10.9391 16.2452 9.92172 15.4951 9.17157C14.7449 8.42143 13.7275 8 12.6666 8C11.6058 8 10.5883 8.42143 9.8382 9.17157C9.08805 9.92172 8.66663 10.9391 8.66663 12C8.66663 13.0609 9.08805 14.0783 9.8382 14.8284C10.5883 15.5786 11.6058 16 12.6666 16ZM12.6666 18C11.0753 18 9.5492 17.3679 8.42399 16.2426C7.29877 15.1174 6.66663 13.5913 6.66663 12C6.66663 10.4087 7.29877 8.88258 8.42399 7.75736C9.5492 6.63214 11.0753 6 12.6666 6C14.2579 6 15.784 6.63214 16.9093 7.75736C18.0345 8.88258 18.6666 10.4087 18.6666 12C18.6666 13.5913 18.0345 15.1174 16.9093 16.2426C15.784 17.3679 14.2579 18 12.6666 18ZM12.6666 14C12.1362 14 11.6275 13.7893 11.2524 13.4142C10.8773 13.0391 10.6666 12.5304 10.6666 12C10.6666 11.4696 10.8773 10.9609 11.2524 10.5858C11.6275 10.2107 12.1362 10 12.6666 10C13.1971 10 13.7058 10.2107 14.0808 10.5858C14.4559 10.9609 14.6666 11.4696 14.6666 12C14.6666 12.5304 14.4559 13.0391 14.0808 13.4142C13.7058 13.7893 13.1971 14 12.6666 14Z" fill="#0073E6" style="fill:#0073E6;fill:color(display-p3 0.0000 0.4510 0.9020);fill-opacity:1;"/>
</g>
<defs>
<clipPath id="clip0_1_11580">
<rect width="24" height="24" fill="white" style="fill:white;fill-opacity:1;" transform="translate(0.666626)"/>
</clipPath>
</defs>
</svg>
