<svg width="33" height="32" viewBox="0 0 33 32" fill="none" xmlns="http://www.w3.org/2000/svg">
<path d="M15.3333 2.66699V5.33366" stroke="#0073E6" style="stroke:#0073E6;stroke:color(display-p3 0.0000 0.4510 0.9020);stroke-opacity:1;" stroke-width="2" stroke-linecap="round" stroke-linejoin="round"/>
<path d="M7.33331 2.66699V5.33366" stroke="#0073E6" style="stroke:#0073E6;stroke:color(display-p3 0.0000 0.4510 0.9020);stroke-opacity:1;" stroke-width="2" stroke-linecap="round" stroke-linejoin="round"/>
<path d="M7.33331 4H5.99998C5.29274 4 4.61446 4.28095 4.11436 4.78105C3.61426 5.28115 3.33331 5.95942 3.33331 6.66667V12C3.33331 14.1217 4.17617 16.1566 5.67646 17.6569C7.17675 19.1571 9.21158 20 11.3333 20C13.455 20 15.4899 19.1571 16.9902 17.6569C18.4905 16.1566 19.3333 14.1217 19.3333 12V6.66667C19.3333 5.95942 19.0524 5.28115 18.5523 4.78105C18.0522 4.28095 17.3739 4 16.6666 4H15.3333" stroke="#0073E6" style="stroke:#0073E6;stroke:color(display-p3 0.0000 0.4510 0.9020);stroke-opacity:1;" stroke-width="2" stroke-linecap="round" stroke-linejoin="round"/>
<path d="M11.3333 20C11.3333 22.1217 12.1762 24.1566 13.6765 25.6569C15.1768 27.1571 17.2116 28 19.3333 28C21.455 28 23.4899 27.1571 24.9902 25.6569C26.4905 24.1566 27.3333 22.1217 27.3333 20V16" stroke="#0073E6" style="stroke:#0073E6;stroke:color(display-p3 0.0000 0.4510 0.9020);stroke-opacity:1;" stroke-width="2" stroke-linecap="round" stroke-linejoin="round"/>
<path d="M27.3333 16.0003C28.8061 16.0003 30 14.8064 30 13.3337C30 11.8609 28.8061 10.667 27.3333 10.667C25.8605 10.667 24.6666 11.8609 24.6666 13.3337C24.6666 14.8064 25.8605 16.0003 27.3333 16.0003Z" stroke="#0073E6" style="stroke:#0073E6;stroke:color(display-p3 0.0000 0.4510 0.9020);stroke-opacity:1;" stroke-width="2" stroke-linecap="round" stroke-linejoin="round"/>
</svg>
