<svg width="33" height="32" viewBox="0 0 33 32" fill="none" xmlns="http://www.w3.org/2000/svg">
<path d="M27.3333 17.3343C27.3333 24.0009 22.6666 27.3343 17.1199 29.2676C16.8295 29.366 16.514 29.3613 16.2266 29.2543C10.6666 27.3343 5.99994 24.0009 5.99994 17.3343V8.00093C5.99994 7.6473 6.14042 7.30816 6.39046 7.05812C6.64051 6.80807 6.97965 6.66759 7.33327 6.66759C9.99994 6.66759 13.3333 5.06759 15.6533 3.04092C15.9357 2.79959 16.2951 2.66699 16.6666 2.66699C17.0381 2.66699 17.3975 2.79959 17.6799 3.04092C20.0133 5.08092 23.3333 6.66759 25.9999 6.66759C26.3536 6.66759 26.6927 6.80807 26.9427 7.05812C27.1928 7.30816 27.3333 7.6473 27.3333 8.00093V17.3343Z" stroke="#0073E6" style="stroke:#0073E6;stroke:color(display-p3 0.0000 0.4510 0.9020);stroke-opacity:1;" stroke-width="2" stroke-linecap="round" stroke-linejoin="round"/>
</svg>
